<?xml version="1.0" encoding="utf-8"?>
<!-- Generator: Adobe Illustrator 16.0.0, SVG Export Plug-In . SVG Version: 6.00 Build 0)  -->
<!DOCTYPE svg PUBLIC "-//W3C//DTD SVG 1.1//EN" "http://www.w3.org/Graphics/SVG/1.1/DTD/svg11.dtd">
<svg version="1.1" id="Layer_1" xmlns="http://www.w3.org/2000/svg" xmlns:xlink="http://www.w3.org/1999/xlink" x="0px" y="0px"
	 width="100px" height="100px" viewBox="0 0 100 100" enable-background="new 0 0 100 100" xml:space="preserve">
<path fill="#413A32" d="M77.676,9.216c-19.425-5.775-27.97,5.712-27.97,5.712c-10.637-13-28.55-5.515-28.55-5.515
	S2.827,16.307,3.023,37.58C3.22,58.853,30.599,78.549,30.599,78.549c6.894-1.771,26.952-20.484,26.952-20.484L47.736,50
	c-6.666,5.653-15.201,11.61-15.201,11.61S9.489,40.14,23.902,27.337c14.029-12.462,26.116,4.924,26.116,4.924L50,31.868
	c0,0,12.087-17.387,26.116-4.924c14.413,12.803-8.632,34.273-8.632,34.273C54.479,74.012,37.296,83.67,37.296,83.67l12.722,9.061
	c44.238-27.379,46.95-50.211,46.96-55.348C97,27.337,92.251,13.549,77.676,9.216z"/>
</svg>
