<?xml version="1.0" encoding="utf-8"?>
<!-- Generator: Adobe Illustrator 16.0.0, SVG Export Plug-In . SVG Version: 6.00 Build 0)  -->
<!DOCTYPE svg PUBLIC "-//W3C//DTD SVG 1.1//EN" "http://www.w3.org/Graphics/SVG/1.1/DTD/svg11.dtd">
<svg version="1.1" id="Layer_1" xmlns="http://www.w3.org/2000/svg" xmlns:xlink="http://www.w3.org/1999/xlink" x="0px" y="0px"
	 width="16px" height="16px" viewBox="0 0 16 16" enable-background="new 0 0 16 16" xml:space="preserve">
<path fill="#FFFFFF" d="M15.497,5.206c0.1,0.272,0.016,0.575-0.2,0.769l-1.354,1.231c0.035,0.26,0.054,0.525,0.054,0.794
	s-0.019,0.534-0.054,0.794l1.354,1.231c0.216,0.193,0.3,0.496,0.2,0.769c-0.138,0.372-0.304,0.728-0.494,1.071l-0.146,0.254
	c-0.206,0.344-0.438,0.668-0.69,0.975c-0.185,0.225-0.491,0.3-0.766,0.213l-1.741-0.554c-0.419,0.322-0.881,0.591-1.375,0.794
	l-0.391,1.784c-0.063,0.284-0.281,0.51-0.568,0.557c-0.432,0.071-0.875,0.109-1.328,0.109S7.1,15.959,6.669,15.888
	c-0.288-0.047-0.506-0.272-0.569-0.557l-0.391-1.784c-0.494-0.203-0.957-0.472-1.375-0.794L2.597,13.31
	c-0.275,0.087-0.581,0.009-0.766-0.213c-0.253-0.306-0.484-0.631-0.69-0.975l-0.147-0.253c-0.19-0.344-0.356-0.7-0.494-1.072
	c-0.1-0.271-0.016-0.575,0.2-0.769l1.353-1.231C2.019,8.534,2,8.269,2,8s0.019-0.534,0.053-0.794L0.7,5.975
	C0.484,5.781,0.4,5.478,0.5,5.206c0.138-0.372,0.303-0.728,0.494-1.072l0.147-0.253c0.206-0.344,0.438-0.669,0.69-0.975
	c0.185-0.225,0.491-0.3,0.766-0.212l1.741,0.553c0.419-0.322,0.881-0.591,1.375-0.794l0.391-1.784
	c0.063-0.285,0.281-0.51,0.569-0.557C7.103,0.038,7.547,0,8,0s0.896,0.038,1.328,0.109c0.287,0.047,0.506,0.272,0.568,0.556
	l0.391,1.785c0.494,0.203,0.957,0.472,1.375,0.793l1.741-0.553c0.274-0.087,0.581-0.009,0.766,0.213
	c0.253,0.306,0.484,0.631,0.69,0.975l0.146,0.253c0.191,0.344,0.356,0.7,0.494,1.072L15.497,5.206z M8,10.5
	c1.381,0,2.5-1.119,2.5-2.5S9.381,5.5,8,5.5S5.5,6.619,5.5,8S6.619,10.5,8,10.5z"/>
</svg>
